<svg xmlns="http://www.w3.org/2000/svg" xmlns:xlink="http://www.w3.org/1999/xlink" width="420px" height="420px" viewBox="0 0 420 420" version="1.1">
    <title>UX @3x</title>
    <defs>
        <filter x="-0.7%" y="-30.0%" width="101.3%" height="160.0%" filterUnits="objectBoundingBox" id="filter-1">
            <feGaussianBlur stdDeviation="1" in="SourceGraphic"/>
        </filter>
        <filter x="-0.7%" y="-30.0%" width="101.3%" height="160.0%" filterUnits="objectBoundingBox" id="filter-2">
            <feGaussianBlur stdDeviation="1" in="SourceGraphic"/>
        </filter>
        <filter x="-0.7%" y="-30.0%" width="101.3%" height="160.0%" filterUnits="objectBoundingBox" id="filter-3">
            <feGaussianBlur stdDeviation="1" in="SourceGraphic"/>
        </filter>
        <filter x="-0.7%" y="-30.0%" width="101.3%" height="160.0%" filterUnits="objectBoundingBox" id="filter-4">
            <feGaussianBlur stdDeviation="1" in="SourceGraphic"/>
        </filter>
        <filter x="-0.7%" y="-30.0%" width="101.3%" height="160.0%" filterUnits="objectBoundingBox" id="filter-5">
            <feGaussianBlur stdDeviation="1" in="SourceGraphic"/>
        </filter>
        <filter x="-0.7%" y="-30.0%" width="101.3%" height="160.0%" filterUnits="objectBoundingBox" id="filter-6">
            <feGaussianBlur stdDeviation="1" in="SourceGraphic"/>
        </filter>
        <filter x="-0.7%" y="-30.0%" width="101.3%" height="160.0%" filterUnits="objectBoundingBox" id="filter-7">
            <feGaussianBlur stdDeviation="1" in="SourceGraphic"/>
        </filter>
        <filter x="-0.7%" y="-30.0%" width="101.3%" height="160.0%" filterUnits="objectBoundingBox" id="filter-8">
            <feGaussianBlur stdDeviation="1" in="SourceGraphic"/>
        </filter>
        <filter x="-0.7%" y="-30.0%" width="101.3%" height="160.0%" filterUnits="objectBoundingBox" id="filter-9">
            <feGaussianBlur stdDeviation="1" in="SourceGraphic"/>
        </filter>
        <filter x="-0.7%" y="-30.0%" width="101.3%" height="160.0%" filterUnits="objectBoundingBox" id="filter-10">
            <feGaussianBlur stdDeviation="1" in="SourceGraphic"/>
        </filter>
        <filter x="-0.7%" y="-30.0%" width="101.3%" height="160.0%" filterUnits="objectBoundingBox" id="filter-11">
            <feGaussianBlur stdDeviation="1" in="SourceGraphic"/>
        </filter>
        <filter x="-0.7%" y="-30.0%" width="101.3%" height="160.0%" filterUnits="objectBoundingBox" id="filter-12">
            <feGaussianBlur stdDeviation="1" in="SourceGraphic"/>
        </filter>
        <filter x="-0.7%" y="-30.0%" width="101.3%" height="160.0%" filterUnits="objectBoundingBox" id="filter-13">
            <feGaussianBlur stdDeviation="1" in="SourceGraphic"/>
        </filter>
        <filter x="-0.7%" y="-30.0%" width="101.3%" height="160.0%" filterUnits="objectBoundingBox" id="filter-14">
            <feGaussianBlur stdDeviation="1" in="SourceGraphic"/>
        </filter>
        <filter x="-0.7%" y="-30.0%" width="101.3%" height="160.0%" filterUnits="objectBoundingBox" id="filter-15">
            <feGaussianBlur stdDeviation="1" in="SourceGraphic"/>
        </filter>
        <filter x="-0.7%" y="-30.0%" width="101.3%" height="160.0%" filterUnits="objectBoundingBox" id="filter-16">
            <feGaussianBlur stdDeviation="1" in="SourceGraphic"/>
        </filter>
        <filter x="-0.7%" y="-30.0%" width="101.3%" height="160.0%" filterUnits="objectBoundingBox" id="filter-17">
            <feGaussianBlur stdDeviation="1" in="SourceGraphic"/>
        </filter>
        <filter x="-0.7%" y="-30.0%" width="101.3%" height="160.0%" filterUnits="objectBoundingBox" id="filter-18">
            <feGaussianBlur stdDeviation="1" in="SourceGraphic"/>
        </filter>
        <filter x="-0.7%" y="-30.0%" width="101.3%" height="160.0%" filterUnits="objectBoundingBox" id="filter-19">
            <feGaussianBlur stdDeviation="1" in="SourceGraphic"/>
        </filter>
        <filter x="-0.7%" y="-30.0%" width="101.3%" height="160.0%" filterUnits="objectBoundingBox" id="filter-20">
            <feGaussianBlur stdDeviation="1" in="SourceGraphic"/>
        </filter>
        <filter x="-0.7%" y="-30.0%" width="101.3%" height="160.0%" filterUnits="objectBoundingBox" id="filter-21">
            <feGaussianBlur stdDeviation="1" in="SourceGraphic"/>
        </filter>
    </defs>
    <g id="UX-" stroke="none" stroke-width="1" fill="none" fill-rule="evenodd">
        <rect id="Rectangle" fill="#262626" x="21" y="24" width="2" height="2"/>
        <g id="Group-2" transform="translate(-15.000000, 5.000000)" fill="#FFFFFF">
            <rect id="Rectangle" filter="url(#filter-1)" x="0" y="0" width="450" height="10"/>
            <rect id="Rectangle-Copy" filter="url(#filter-2)" x="0" y="20" width="450" height="10"/>
            <rect id="Rectangle-Copy-2" filter="url(#filter-3)" x="0" y="40" width="450" height="10"/>
            <rect id="Rectangle-Copy-3" filter="url(#filter-4)" x="0" y="60" width="450" height="10"/>
            <rect id="Rectangle-Copy-4" filter="url(#filter-5)" x="0" y="80" width="450" height="10"/>
            <rect id="Rectangle-Copy-5" filter="url(#filter-6)" x="0" y="100" width="450" height="10"/>
            <rect id="Rectangle-Copy-6" filter="url(#filter-7)" x="0" y="120" width="450" height="10"/>
            <rect id="Rectangle-Copy-7" filter="url(#filter-8)" x="0" y="140" width="450" height="10"/>
            <rect id="Rectangle-Copy-8" filter="url(#filter-9)" x="0" y="160" width="450" height="10"/>
            <rect id="Rectangle-Copy-9" filter="url(#filter-10)" x="0" y="180" width="450" height="10"/>
            <rect id="Rectangle-Copy-10" filter="url(#filter-11)" x="0" y="200" width="450" height="10"/>
            <rect id="Rectangle-Copy-11" filter="url(#filter-12)" x="0" y="220" width="450" height="10"/>
            <rect id="Rectangle-Copy-12" filter="url(#filter-13)" x="0" y="240" width="450" height="10"/>
            <rect id="Rectangle-Copy-13" filter="url(#filter-14)" x="0" y="260" width="450" height="10"/>
            <rect id="Rectangle-Copy-14" filter="url(#filter-15)" x="0" y="280" width="450" height="10"/>
            <rect id="Rectangle-Copy-15" filter="url(#filter-16)" x="0" y="300" width="450" height="10"/>
            <rect id="Rectangle-Copy-16" filter="url(#filter-17)" x="0" y="320" width="450" height="10"/>
            <rect id="Rectangle-Copy-17" filter="url(#filter-18)" x="0" y="340" width="450" height="10"/>
            <rect id="Rectangle-Copy-18" filter="url(#filter-19)" x="0" y="360" width="450" height="10"/>
            <rect id="Rectangle-Copy-19" filter="url(#filter-20)" x="0" y="380" width="450" height="10"/>
            <rect id="Rectangle-Copy-20" filter="url(#filter-21)" x="0" y="400" width="450" height="10"/>
        </g>
    </g>
</svg>
